{"accessors" : [{"bufferView" : 0, "byteOffset" : 0, "componentType" : 5123, "count" : 2832, "type" : "SCALAR", "max" : [2831], "min" : [0]}, {"bufferView" : 1, "byteOffset" : 0, "componentType" : 5126, "count" : 2832, "type" : "VEC3", "max" : [90.31682586669922, 195.8668670654297, 114.51193237304688], "min" : [-90.13510131835938, -196.8821563720703, 17.548471450805664], "name" : "POSITION"}, {"bufferView" : 1, "byteOffset" : 12, "componentType" : 5126, "count" : 2832, "type" : "VEC3", "max" : [1.0000044107437134, 0.9992430210113525, 1.0000044107437134], "min" : [-1.0000044107437134, -0.9999544620513916, -1.0000044107437134], "name" : "NORMAL"}, {"bufferView" : 0, "byteOffset" : 5664, "componentType" : 5123, "count" : 1116, "type" : "SCALAR", "max" : [1115], "min" : [0]}, {"bufferView" : 2, "byteOffset" : 0, "componentType" : 5126, "count" : 1116, "type" : "VEC3", "max" : [83.59091186523438, 198.40760803222656, 33.89189910888672], "min" : [-83.40918731689453, -198.46310424804688, 17.06597900390625], "name" : "POSITION"}, {"bufferView" : 2, "byteOffset" : 12, "componentType" : 5126, "count" : 1116, "type" : "VEC3", "max" : [1.0000044107437134, 0.999377965927124, 1.0000044107437134], "min" : [-1.0000044107437134, -0.9984020590782166, -1.0000044107437134], "name" : "NORMAL"}, {"bufferView" : 0, "byteOffset" : 7896, "componentType" : 5123, "count" : 186, "type" : "SCALAR", "max" : [185], "min" : [0]}, {"bufferView" : 3, "byteOffset" : 0, "componentType" : 5126, "count" : 186, "type" : "VEC3", "max" : [71.48889923095703, 78.68092346191406, 110.37417602539062], "min" : [-71.30718994140625, -135.33660888671875, 77.67970275878906], "name" : "POSITION"}, {"bufferView" : 3, "byteOffset" : 12, "componentType" : 5126, "count" : 186, "type" : "VEC3", "max" : [0.8682807087898254, 0.536887526512146, 0.9212146997451782], "min" : [-0.8682807087898254, -0.41344499588012695, 0.49607741832733154], "name" : "NORMAL"}, {"bufferView" : 0, "byteOffset" : 8268, "componentType" : 5123, "count" : 12, "type" : "SCALAR", "max" : [11], "min" : [0]}, {"bufferView" : 4, "byteOffset" : 0, "componentType" : 5126, "count" : 12, "type" : "VEC3", "max" : [23.91262435913086, -187.2274932861328, 55.57088851928711], "min" : [-23.73091697692871, -192.4764862060547, 41.309226989746094], "name" : "POSITION"}, {"bufferView" : 4, "byteOffset" : 12, "componentType" : 5126, "count" : 12, "type" : "VEC3", "max" : [0.07772661000490189, -0.9706911444664001, 0.2274334579706192], "min" : [-0.07772661000490189, -0.9706911444664001, 0.22743341326713562], "name" : "NORMAL"}, {"bufferView" : 0, "byteOffset" : 8292, "componentType" : 5123, "count" : 30, "type" : "SCALAR", "max" : [29], "min" : [0]}, {"bufferView" : 5, "byteOffset" : 0, "componentType" : 5126, "count" : 30, "type" : "VEC3", "max" : [67.22128295898438, 189.343505859375, 53.7796745300293], "min" : [-67.03955078125, 169.8944091796875, 40.81584930419922], "name" : "POSITION"}, {"bufferView" : 5, "byteOffset" : 12, "componentType" : 5126, "count" : 30, "type" : "VEC3", "max" : [0.863020122051239, 0.8995080590248108, 0.3800889551639557], "min" : [-0.863020122051239, 0.4949081242084503, 0.10134564340114594], "name" : "NORMAL"}, {"bufferView" : 0, "byteOffset" : 8352, "componentType" : 5123, "count" : 18, "type" : "SCALAR", "max" : [17], "min" : [0]}, {"bufferView" : 6, "byteOffset" : 0, "componentType" : 5126, "count" : 18, "type" : "VEC3", "max" : [56.67198181152344, -172.34840393066406, 73.61947631835938], "min" : [-56.490272521972656, -184.05889892578125, 60.69601058959961], "name" : "POSITION"}, {"bufferView" : 6, "byteOffset" : 12, "componentType" : 5126, "count" : 18, "type" : "VEC3", "max" : [0.465395987033844, -0.8495667576789856, 0.3866143822669983], "min" : [-0.46539589762687683, -0.8826485872268677, 0.24829764664173126], "name" : "NORMAL"}, {"bufferView" : 0, "byteOffset" : 8388, "componentType" : 5123, "count" : 828, "type" : "SCALAR", "max" : [827], "min" : [0]}, {"bufferView" : 7, "byteOffset" : 0, "componentType" : 5126, "count" : 828, "type" : "VEC3", "max" : [78.41582489013672, 25.98950958251953, 25.989501953125], "min" : [-78.41582489013672, -25.989484786987305, -25.989501953125], "name" : "POSITION"}, {"bufferView" : 7, "byteOffset" : 12, "componentType" : 5126, "count" : 828, "type" : "VEC3", "max" : [1.0000044107437134, 0.965930163860321, 0.9659301042556763], "min" : [-1.0000044107437134, -0.9659305214881897, -0.9659302830696106], "name" : "NORMAL"}, {"bufferView" : 0, "byteOffset" : 10044, "componentType" : 5123, "count" : 1692, "type" : "SCALAR", "max" : [1691], "min" : [0]}, {"bufferView" : 8, "byteOffset" : 0, "componentType" : 5126, "count" : 1692, "type" : "VEC3", "max" : [77.16423797607422, 17.179702758789062, 17.17972183227539], "min" : [-77.16423797607422, -17.17972755432129, -17.17972183227539], "name" : "POSITION"}, {"bufferView" : 8, "byteOffset" : 12, "componentType" : 5126, "count" : 1692, "type" : "VEC3", "max" : [1.0000044107437134, 0.9998114705085754, 0.9998115301132202], "min" : [-1.0000044107437134, -0.9998114109039307, -0.9998115301132202], "name" : "NORMAL"}, {"bufferView" : 0, "byteOffset" : 13428, "componentType" : 5123, "count" : 414, "type" : "SCALAR", "max" : [413], "min" : [0]}, {"bufferView" : 9, "byteOffset" : 0, "componentType" : 5126, "count" : 414, "type" : "VEC3", "max" : [9.470373153686523, 25.989490509033203, 25.989501953125], "min" : [-9.470378875732422, -25.98949432373047, -25.989501953125], "name" : "POSITION"}, {"bufferView" : 9, "byteOffset" : 12, "componentType" : 5126, "count" : 414, "type" : "VEC3", "max" : [1.0000044107437134, 0.9659304022789001, 0.9659302830696106], "min" : [-1.0000044107437134, -0.9659304022789001, -0.9659304618835449], "name" : "NORMAL"}, {"bufferView" : 0, "byteOffset" : 14256, "componentType" : 5123, "count" : 846, "type" : "SCALAR", "max" : [845], "min" : [0]}, {"bufferView" : 10, "byteOffset" : 0, "componentType" : 5126, "count" : 846, "type" : "VEC3", "max" : [-3.053891658782959, 17.17972183227539, 17.17972183227539], "min" : [-8.218794822692871, -17.179718017578125, -17.179723739624023], "name" : "POSITION"}, {"bufferView" : 10, "byteOffset" : 12, "componentType" : 5126, "count" : 846, "type" : "VEC3", "max" : [3.216563584373944E-07, 0.9998114109039307, 0.9998115301132202], "min" : [-1.0000044107437134, -0.9998115301132202, -0.9998115301132202], "name" : "NORMAL"}, {"bufferView" : 0, "byteOffset" : 15948, "componentType" : 5123, "count" : 414, "type" : "SCALAR", "max" : [413], "min" : [0]}, {"bufferView" : 11, "byteOffset" : 0, "componentType" : 5126, "count" : 414, "type" : "VEC3", "max" : [9.470378875732422, 25.989490509033203, 25.989501953125], "min" : [-9.470373153686523, -25.98949432373047, -25.989501953125], "name" : "POSITION"}, {"bufferView" : 11, "byteOffset" : 12, "componentType" : 5126, "count" : 414, "type" : "VEC3", "max" : [1.0000044107437134, 0.9659304022789001, 0.9659302830696106], "min" : [-1.0000044107437134, -0.9659304022789001, -0.9659304618835449], "name" : "NORMAL"}, {"bufferView" : 0, "byteOffset" : 16776, "componentType" : 5123, "count" : 846, "type" : "SCALAR", "max" : [845], "min" : [0]}, {"bufferView" : 12, "byteOffset" : 0, "componentType" : 5126, "count" : 846, "type" : "VEC3", "max" : [8.218794822692871, 17.17972183227539, 17.17972183227539], "min" : [3.053891658782959, -17.179718017578125, -17.179723739624023], "name" : "POSITION"}, {"bufferView" : 12, "byteOffset" : 12, "componentType" : 5126, "count" : 846, "type" : "VEC3", "max" : [1.0000044107437134, 0.9998114109039307, 0.9998115301132202], "min" : [-3.216563584373944E-07, -0.9998115301132202, -0.9998115301132202], "name" : "NORMAL"}], "asset" : {"generator" : "Aspose.3D 22.1", "version" : "2.0"}, "buffers" : [{"uri" : "data:application/octet-stream;base64,", "byteLength" : 240136}], "bufferViews" : [{"buffer" : 0, "byteOffset" : 0, "byteLength" : 18468, "target" : 34963}, {"buffer" : 0, "byteOffset" : 18472, "byteLength" : 67968, "byteStride" : 24, "target" : 34962}, {"buffer" : 0, "byteOffset" : 86444, "byteLength" : 26784, "byteStride" : 24, "target" : 34962}, {"buffer" : 0, "byteOffset" : 113232, "byteLength" : 4464, "byteStride" : 24, "target" : 34962}, {"buffer" : 0, "byteOffset" : 117700, "byteLength" : 288, "byteStride" : 24, "target" : 34962}, {"buffer" : 0, "byteOffset" : 117992, "byteLength" : 720, "byteStride" : 24, "target" : 34962}, {"buffer" : 0, "byteOffset" : 118716, "byteLength" : 432, "byteStride" : 24, "target" : 34962}, {"buffer" : 0, "byteOffset" : 119152, "byteLength" : 19872, "byteStride" : 24, "target" : 34962}, {"buffer" : 0, "byteOffset" : 139028, "byteLength" : 40608, "byteStride" : 24, "target" : 34962}, {"buffer" : 0, "byteOffset" : 179640, "byteLength" : 9936, "byteStride" : 24, "target" : 34962}, {"buffer" : 0, "byteOffset" : 189580, "byteLength" : 20304, "byteStride" : 24, "target" : 34962}, {"buffer" : 0, "byteOffset" : 209888, "byteLength" : 9936, "byteStride" : 24, "target" : 34962}, {"buffer" : 0, "byteOffset" : 219828, "byteLength" : 20304, "byteStride" : 24, "target" : 34962}], "materials" : [{"name" : "", "pbrMetallicRoughness" : {"baseColorFactor" : [0.799102783203125, 0.33245155215263367, 0.10702310502529144, 1], "metallicFactor" : 0, "roughnessFactor" : 0}, "emissiveFactor" : [0.799102783203125, 0.33245155215263367, 0.10702310502529144], "alphaMode" : "OPAQUE", "doubleSided" : false}, {"name" : "", "pbrMetallicRoughness" : {"baseColorFactor" : [0.6981843709945679, 0.2915478050708771, 0.09454362094402313, 1], "metallicFactor" : 0, "roughnessFactor" : 0}, "emissiveFactor" : [0.6981843709945679, 0.2915478050708771, 0.09454362094402313], "alphaMode" : "OPAQUE", "doubleSided" : false}, {"name" : "", "pbrMetallicRoughness" : {"baseColorFactor" : [0.03560131788253784, 0.03560131788253784, 0.03560131788253784, 1], "metallicFactor" : 0, "roughnessFactor" : 0}, "emissiveFactor" : [0.03560131788253784, 0.03560131788253784, 0.03560131788253784], "alphaMode" : "OPAQUE", "doubleSided" : false}, {"name" : "", "pbrMetallicRoughness" : {"baseColorFactor" : [0.2015562802553177, 0.2015562802553177, 0.2015562802553177, 1], "metallicFactor" : 0, "roughnessFactor" : 0}, "emissiveFactor" : [0.2015562802553177, 0.2015562802553177, 0.2015562802553177], "alphaMode" : "OPAQUE", "doubleSided" : false}, {"name" : "", "pbrMetallicRoughness" : {"baseColorFactor" : [0.799102783203125, 0.6052753329277039, 0.17320460081100464, 1], "metallicFactor" : 0, "roughnessFactor" : 0}, "emissiveFactor" : [0.799102783203125, 0.6052753329277039, 0.17320460081100464], "alphaMode" : "OPAQUE", "doubleSided" : false}, {"name" : "", "pbrMetallicRoughness" : {"baseColorFactor" : [0.799102783203125, 0.09305897355079651, 0.07421357929706573, 1], "metallicFactor" : 0, "roughnessFactor" : 0}, "emissiveFactor" : [0.799102783203125, 0.09305897355079651, 0.07421357929706573], "alphaMode" : "OPAQUE", "doubleSided" : false}, {"name" : "", "pbrMetallicRoughness" : {"baseColorFactor" : [0.013702086172997952, 0.013702086172997952, 0.013702086172997952, 1], "metallicFactor" : 0, "roughnessFactor" : 0}, "emissiveFactor" : [0.013702086172997952, 0.013702086172997952, 0.013702086172997952], "alphaMode" : "OPAQUE", "doubleSided" : false}, {"name" : "", "pbrMetallicRoughness" : {"baseColorFactor" : [0.2015562802553177, 0.2015562802553177, 0.2015562802553177, 1], "metallicFactor" : 0, "roughnessFactor" : 0}, "emissiveFactor" : [0.2015562802553177, 0.2015562802553177, 0.2015562802553177], "alphaMode" : "OPAQUE", "doubleSided" : false}, {"name" : "", "pbrMetallicRoughness" : {"baseColorFactor" : [0.013702086172997952, 0.013702086172997952, 0.013702086172997952, 1], "metallicFactor" : 0, "roughnessFactor" : 0}, "emissiveFactor" : [0.013702086172997952, 0.013702086172997952, 0.013702086172997952], "alphaMode" : "OPAQUE", "doubleSided" : false}, {"name" : "", "pbrMetallicRoughness" : {"baseColorFactor" : [0.2015562802553177, 0.2015562802553177, 0.2015562802553177, 1], "metallicFactor" : 0, "roughnessFactor" : 0}, "emissiveFactor" : [0.2015562802553177, 0.2015562802553177, 0.2015562802553177], "alphaMode" : "OPAQUE", "doubleSided" : false}, {"name" : "", "pbrMetallicRoughness" : {"baseColorFactor" : [0.013702086172997952, 0.013702086172997952, 0.013702086172997952, 1], "metallicFactor" : 0, "roughnessFactor" : 0}, "emissiveFactor" : [0.013702086172997952, 0.013702086172997952, 0.013702086172997952], "alphaMode" : "OPAQUE", "doubleSided" : false}, {"name" : "", "pbrMetallicRoughness" : {"baseColorFactor" : [0.2015562802553177, 0.2015562802553177, 0.2015562802553177, 1], "metallicFactor" : 0, "roughnessFactor" : 0}, "emissiveFactor" : [0.2015562802553177, 0.2015562802553177, 0.2015562802553177], "alphaMode" : "OPAQUE", "doubleSided" : false}], "meshes" : [{"primitives" : [{"attributes" : {"POSITION" : 1, "NORMAL" : 2}, "indices" : 0, "material" : 0, "mode" : 4}, {"attributes" : {"POSITION" : 4, "NORMAL" : 5}, "indices" : 3, "material" : 1, "mode" : 4}, {"attributes" : {"POSITION" : 7, "NORMAL" : 8}, "indices" : 6, "material" : 2, "mode" : 4}, {"attributes" : {"POSITION" : 10, "NORMAL" : 11}, "indices" : 9, "material" : 3, "mode" : 4}, {"attributes" : {"POSITION" : 13, "NORMAL" : 14}, "indices" : 12, "material" : 4, "mode" : 4}, {"attributes" : {"POSITION" : 16, "NORMAL" : 17}, "indices" : 15, "material" : 5, "mode" : 4}], "name" : "Cube.005"}, {"primitives" : [{"attributes" : {"POSITION" : 19, "NORMAL" : 20}, "indices" : 18, "material" : 6, "mode" : 4}, {"attributes" : {"POSITION" : 22, "NORMAL" : 23}, "indices" : 21, "material" : 7, "mode" : 4}], "name" : "Cylinder.004"}, {"primitives" : [{"attributes" : {"POSITION" : 25, "NORMAL" : 26}, "indices" : 24, "material" : 8, "mode" : 4}, {"attributes" : {"POSITION" : 28, "NORMAL" : 29}, "indices" : 27, "material" : 9, "mode" : 4}], "name" : "Cylinder.013"}, {"primitives" : [{"attributes" : {"POSITION" : 31, "NORMAL" : 32}, "indices" : 30, "material" : 10, "mode" : 4}, {"attributes" : {"POSITION" : 34, "NORMAL" : 35}, "indices" : 33, "material" : 11, "mode" : 4}], "name" : "Cylinder.014"}], "nodes" : [{"mesh" : 0, "name" : "SportsCar"}, {"matrix" : [1, 0, 0, 0, 0, 1, 0, 0, 0, 0, 1, 0, -0.2891823649406433, -125.46066284179688, 24.96103858947754, 1], "mesh" : 1, "name" : "SportsCar_BackWheels"}, {"matrix" : [1, 0, 0, 0, 0, 1, 0, 0, 0, 0, 1, 0, -71.97531127929688, 118.80390930175781, 24.96103858947754, 1], "mesh" : 2, "name" : "SportsCar_FrontLeftWheel"}, {"matrix" : [1, 0, 0, 0, 0, 1, 0, 0, 0, 0, 1, 0, 71.39694213867188, 118.80390930175781, 24.96103858947754, 1], "mesh" : 3, "name" : "SportsCar_FrontRightWheel"}], "scene" : 0, "scenes" : [{"nodes" : [0, 1, 2, 3]}]}